<svg xmlns="http://www.w3.org/2000/svg" xmlns:xlink="http://www.w3.org/1999/xlink" width="500" zoomAndPan="magnify" viewBox="0 0 375 374.999991" height="500" preserveAspectRatio="xMidYMid meet" version="1.0"><defs><g/></defs><path fill="#adde34" d="M 134.558594 79.929688 L 128.574219 85.914062 C 132.316406 89.65625 142.191406 99.535156 145.90625 103.25 L 151.894531 97.261719 C 148.164062 93.546875 138.289062 83.65625 134.558594 79.929688 " fill-opacity="1" fill-rule="nonzero"/><path fill="#adde34" d="M 128.890625 174.980469 C 130.472656 176.5625 134.652344 180.742188 136.269531 182.359375 L 149.996094 168.648438 C 147.289062 165.953125 145.296875 163.964844 142.601562 161.269531 L 128.890625 174.980469 " fill-opacity="1" fill-rule="nonzero"/><path fill="#adde34" d="M 264.125 144.902344 C 257.871094 143.136719 251.59375 146.8125 249.828125 152.789062 C 234.667969 206.507812 166.523438 224.414062 126.675781 184.589844 C 86.960938 144.851562 104.5625 76.648438 158.476562 61.4375 C 164.4375 59.671875 168.113281 53.378906 166.363281 47.128906 C 164.53125 41.023438 158.171875 37.53125 152.054688 39.257812 C 81.054688 59.726562 58.472656 148.925781 110.414062 200.863281 C 162.050781 252.484375 251.421875 230.585938 271.996094 159.210938 C 273.71875 153.09375 270.242188 146.722656 264.125 144.902344 " fill-opacity="1" fill-rule="nonzero"/><path fill="#adde34" d="M 208.003906 165.34375 C 211.734375 169.074219 221.609375 178.949219 225.339844 182.679688 L 231.324219 176.707031 C 227.582031 172.964844 217.707031 163.074219 213.988281 159.371094 L 208.003906 165.34375 " fill-opacity="1" fill-rule="nonzero"/><path fill="#ffffff" d="M 183.351562 82.464844 C 186.417969 78.960938 189.21875 76.34375 191.648438 74.683594 C 193.957031 73.117188 196.652344 72.320312 199.667969 72.320312 C 202.71875 72.320312 205.203125 73.09375 207.035156 74.605469 C 208.824219 76.066406 209.6875 78.214844 209.6875 81.1875 C 209.6875 82.664062 209.449219 84.03125 208.984375 85.25 C 208.507812 86.511719 207.722656 87.8125 206.648438 89.167969 C 205.535156 90.558594 204.058594 92.046875 202.269531 93.601562 C 200.4375 95.207031 198.167969 97.023438 195.539062 99.015625 L 166.722656 120.957031 L 166.722656 136.792969 L 232.386719 136.792969 L 232.386719 118.992188 L 198.300781 118.992188 L 208.625 111.574219 C 212.355469 108.863281 215.675781 106.316406 218.515625 104.019531 C 221.410156 101.671875 223.839844 99.253906 225.710938 96.851562 C 227.609375 94.410156 229.066406 91.792969 230.050781 89.074219 C 231.03125 86.324219 231.535156 83.195312 231.535156 79.742188 C 231.535156 75.867188 230.808594 72.296875 229.414062 69.125 C 227.992188 65.925781 225.910156 63.164062 223.199219 60.878906 C 220.53125 58.636719 217.265625 56.871094 213.511719 55.664062 C 209.78125 54.457031 205.535156 53.84375 200.886719 53.84375 C 196.984375 53.84375 193.453125 54.21875 190.363281 54.960938 C 187.253906 55.703125 184.375 56.832031 181.800781 58.292969 C 179.25 59.738281 176.824219 61.542969 174.621094 63.667969 C 172.441406 65.738281 170.253906 68.152344 168.113281 70.847656 L 167.210938 71.976562 L 182.503906 83.433594 L 183.351562 82.464844 " fill-opacity="1" fill-rule="nonzero"/><path fill="#ffffff" d="M 284.683594 102.839844 L 266.6875 102.839844 L 284.683594 83.207031 Z M 305.324219 102.839844 L 305.324219 54.402344 L 287.539062 54.402344 L 240.003906 105.652344 L 243.484375 119.75 L 284.683594 119.75 L 284.683594 136.792969 L 305.324219 136.792969 L 305.324219 119.75 L 316.726562 119.75 L 316.726562 102.839844 L 305.324219 102.839844 " fill-opacity="1" fill-rule="nonzero"/><g fill="#ffffff" fill-opacity="1"><g transform="translate(32.797506, 316.960612)"><g><path d="M 25.65625 0.5625 C 21.488281 0.5625 17.753906 -0.109375 14.453125 -1.453125 C 11.148438 -2.804688 8.507812 -4.8125 6.53125 -7.46875 C 4.5625 -10.125 3.519531 -13.316406 3.40625 -17.046875 L 18.1875 -17.046875 C 18.40625 -14.941406 19.132812 -13.332031 20.375 -12.21875 C 21.625 -11.101562 23.25 -10.546875 25.25 -10.546875 C 27.300781 -10.546875 28.921875 -11.019531 30.109375 -11.96875 C 31.304688 -12.914062 31.90625 -14.226562 31.90625 -15.90625 C 31.90625 -17.320312 31.429688 -18.488281 30.484375 -19.40625 C 29.535156 -20.320312 28.367188 -21.078125 26.984375 -21.671875 C 25.609375 -22.265625 23.648438 -22.941406 21.109375 -23.703125 C 17.429688 -24.835938 14.425781 -25.972656 12.09375 -27.109375 C 9.769531 -28.253906 7.769531 -29.9375 6.09375 -32.15625 C 4.414062 -34.375 3.578125 -37.269531 3.578125 -40.84375 C 3.578125 -46.144531 5.492188 -50.296875 9.328125 -53.296875 C 13.171875 -56.304688 18.179688 -57.8125 24.359375 -57.8125 C 30.640625 -57.8125 35.695312 -56.304688 39.53125 -53.296875 C 43.375 -50.296875 45.429688 -46.113281 45.703125 -40.75 L 30.6875 -40.75 C 30.582031 -42.59375 29.90625 -44.039062 28.65625 -45.09375 C 27.414062 -46.15625 25.820312 -46.6875 23.875 -46.6875 C 22.195312 -46.6875 20.84375 -46.238281 19.8125 -45.34375 C 18.78125 -44.445312 18.265625 -43.160156 18.265625 -41.484375 C 18.265625 -39.640625 19.128906 -38.203125 20.859375 -37.171875 C 22.597656 -36.148438 25.304688 -35.046875 28.984375 -33.859375 C 32.660156 -32.609375 35.648438 -31.414062 37.953125 -30.28125 C 40.253906 -29.144531 42.242188 -27.492188 43.921875 -25.328125 C 45.597656 -23.160156 46.4375 -20.375 46.4375 -16.96875 C 46.4375 -13.71875 45.609375 -10.765625 43.953125 -8.109375 C 42.304688 -5.460938 39.910156 -3.351562 36.765625 -1.78125 C 33.628906 -0.21875 29.925781 0.5625 25.65625 0.5625 Z M 25.65625 0.5625 "/></g></g></g><g fill="#ffffff" fill-opacity="1"><g transform="translate(82.725162, 316.960612)"><g><path d="M 18.671875 -57 L 18.671875 -22.890625 C 18.671875 -19.484375 19.507812 -16.859375 21.1875 -15.015625 C 22.863281 -13.179688 25.328125 -12.265625 28.578125 -12.265625 C 31.828125 -12.265625 34.316406 -13.179688 36.046875 -15.015625 C 37.773438 -16.859375 38.640625 -19.484375 38.640625 -22.890625 L 38.640625 -57 L 52.53125 -57 L 52.53125 -22.96875 C 52.53125 -17.882812 51.445312 -13.582031 49.28125 -10.0625 C 47.113281 -6.550781 44.203125 -3.898438 40.546875 -2.109375 C 36.898438 -0.328125 32.828125 0.5625 28.328125 0.5625 C 23.835938 0.5625 19.816406 -0.3125 16.265625 -2.0625 C 12.722656 -3.820312 9.925781 -6.472656 7.875 -10.015625 C 5.820312 -13.566406 4.796875 -17.882812 4.796875 -22.96875 L 4.796875 -57 Z M 18.671875 -57 "/></g></g></g><g fill="#ffffff" fill-opacity="1"><g transform="translate(139.959306, 316.960612)"><g><path d="M 48.46875 -38.640625 C 48.46875 -35.335938 47.707031 -32.320312 46.1875 -29.59375 C 44.675781 -26.863281 42.347656 -24.65625 39.203125 -22.96875 C 36.066406 -21.289062 32.171875 -20.453125 27.515625 -20.453125 L 18.921875 -20.453125 L 18.921875 0 L 5.03125 0 L 5.03125 -57 L 27.515625 -57 C 32.066406 -57 35.910156 -56.210938 39.046875 -54.640625 C 42.191406 -53.066406 44.546875 -50.898438 46.109375 -48.140625 C 47.679688 -45.378906 48.46875 -42.210938 48.46875 -38.640625 Z M 26.46875 -31.5 C 29.113281 -31.5 31.085938 -32.117188 32.390625 -33.359375 C 33.691406 -34.609375 34.34375 -36.367188 34.34375 -38.640625 C 34.34375 -40.921875 33.691406 -42.679688 32.390625 -43.921875 C 31.085938 -45.171875 29.113281 -45.796875 26.46875 -45.796875 L 18.921875 -45.796875 L 18.921875 -31.5 Z M 26.46875 -31.5 "/></g></g></g><g fill="#ffffff" fill-opacity="1"><g transform="translate(190.617615, 316.960612)"><g><path d="M 48.46875 -38.640625 C 48.46875 -35.335938 47.707031 -32.320312 46.1875 -29.59375 C 44.675781 -26.863281 42.347656 -24.65625 39.203125 -22.96875 C 36.066406 -21.289062 32.171875 -20.453125 27.515625 -20.453125 L 18.921875 -20.453125 L 18.921875 0 L 5.03125 0 L 5.03125 -57 L 27.515625 -57 C 32.066406 -57 35.910156 -56.210938 39.046875 -54.640625 C 42.191406 -53.066406 44.546875 -50.898438 46.109375 -48.140625 C 47.679688 -45.378906 48.46875 -42.210938 48.46875 -38.640625 Z M 26.46875 -31.5 C 29.113281 -31.5 31.085938 -32.117188 32.390625 -33.359375 C 33.691406 -34.609375 34.34375 -36.367188 34.34375 -38.640625 C 34.34375 -40.921875 33.691406 -42.679688 32.390625 -43.921875 C 31.085938 -45.171875 29.113281 -45.796875 26.46875 -45.796875 L 18.921875 -45.796875 L 18.921875 -31.5 Z M 26.46875 -31.5 "/></g></g></g><g fill="#ffffff" fill-opacity="1"><g transform="translate(241.275923, 316.960612)"><g><path d="M 34.09375 0 L 22.25 -21.515625 L 18.921875 -21.515625 L 18.921875 0 L 5.03125 0 L 5.03125 -57 L 28.328125 -57 C 32.828125 -57 36.660156 -56.210938 39.828125 -54.640625 C 42.992188 -53.066406 45.359375 -50.910156 46.921875 -48.171875 C 48.492188 -45.441406 49.28125 -42.398438 49.28125 -39.046875 C 49.28125 -35.265625 48.207031 -31.882812 46.0625 -28.90625 C 43.925781 -25.925781 40.773438 -23.8125 36.609375 -22.5625 L 49.765625 0 Z M 18.921875 -31.34375 L 27.515625 -31.34375 C 30.066406 -31.34375 31.976562 -31.960938 33.25 -33.203125 C 34.519531 -34.453125 35.15625 -36.210938 35.15625 -38.484375 C 35.15625 -40.648438 34.519531 -42.351562 33.25 -43.59375 C 31.976562 -44.84375 30.066406 -45.46875 27.515625 -45.46875 L 18.921875 -45.46875 Z M 18.921875 -31.34375 "/></g></g></g><g fill="#ffffff" fill-opacity="1"><g transform="translate(294.207364, 316.960612)"><g><path d="M 46.03125 -57 L 46.03125 -45.875 L 30.9375 -45.875 L 30.9375 0 L 17.046875 0 L 17.046875 -45.875 L 1.953125 -45.875 L 1.953125 -57 Z M 46.03125 -57 "/></g></g></g></svg>